<mxfile host="app.diagrams.net" modified="2023-10-19T18:13:26.491Z" agent="Mozilla/5.0 (X11; Linux x86_64; rv:109.0) Gecko/20100101 Firefox/114.0" version="22.0.5" etag="F3BtCPhoeclYC1BBtZEm" type="github">
  <diagram name="PÃ¡gina-1" id="-eZd8IAgM0WQvdyVW1fA">
    <mxGraphModel>
      <root>
        <mxCell id="0" />
        <mxCell id="1" parent="0" />
      </root>
    </mxGraphModel>
  </diagram>
</mxfile>
